<mxfile host="app.diagrams.net" modified="2024-03-01T10:42:13.460Z" agent="Mozilla/5.0 (Windows NT 10.0; Win64; x64) AppleWebKit/537.36 (KHTML, like Gecko) Chrome/122.0.0.0 Safari/537.36 Edg/122.0.0.0" etag="-0jEXxbojGxQ8K0kI3MI" version="23.1.7" type="device">
  <diagram name="Page-1" id="K93GioXHcdLW4GkXaLi8">
    <mxGraphModel dx="1660" dy="910" grid="0" gridSize="10" guides="1" tooltips="1" connect="1" arrows="1" fold="1" page="0" pageScale="1" pageWidth="850" pageHeight="1100" background="none" math="0" shadow="0">
      <root>
        <mxCell id="0" />
        <mxCell id="1" parent="0" />
        <mxCell id="IfRqWYrBAdbVgL5FJOSv-67" value="" style="whiteSpace=wrap;html=1;fillColor=#f5f5f5;strokeColor=#666666;fontColor=#333333;" vertex="1" parent="1">
          <mxGeometry x="-84" y="713" width="1129" height="284" as="geometry" />
        </mxCell>
        <mxCell id="IfRqWYrBAdbVgL5FJOSv-64" value="" style="whiteSpace=wrap;html=1;fillColor=#DDE8DA;strokeColor=#82b366;" vertex="1" parent="1">
          <mxGeometry x="-84" y="-70" width="1129" height="827" as="geometry" />
        </mxCell>
        <mxCell id="vL50DNEhLoG7WmbZGRhC-9" value="VPC &lt;b&gt;(12.0.0.0 / 16)&lt;/b&gt;" style="sketch=0;outlineConnect=0;html=1;whiteSpace=wrap;fontSize=12;fontStyle=0;shape=mxgraph.aws4.group;grIcon=mxgraph.aws4.group_vpc;verticalAlign=top;align=left;spacingLeft=30;dashed=0;fillColor=#EDEDED;" parent="1" vertex="1">
          <mxGeometry x="100" y="40" width="650" height="300" as="geometry" />
        </mxCell>
        <mxCell id="vL50DNEhLoG7WmbZGRhC-10" value="Private subnet &lt;b&gt;(12.0.2.0 / 24)&lt;/b&gt;" style="points=[[0,0],[0.25,0],[0.5,0],[0.75,0],[1,0],[1,0.25],[1,0.5],[1,0.75],[1,1],[0.75,1],[0.5,1],[0.25,1],[0,1],[0,0.75],[0,0.5],[0,0.25]];outlineConnect=0;html=1;whiteSpace=wrap;fontSize=12;fontStyle=0;container=1;pointerEvents=0;collapsible=0;recursiveResize=0;shape=mxgraph.aws4.group;grIcon=mxgraph.aws4.group_security_group;grStroke=0;strokeColor=#b46504;fillColor=#fad7ac;verticalAlign=top;align=left;spacingLeft=30;dashed=0;" parent="1" vertex="1">
          <mxGeometry x="490" y="190" width="240" height="140" as="geometry" />
        </mxCell>
        <mxCell id="vL50DNEhLoG7WmbZGRhC-14" value="" style="sketch=0;points=[[0,0,0],[0.25,0,0],[0.5,0,0],[0.75,0,0],[1,0,0],[0,1,0],[0.25,1,0],[0.5,1,0],[0.75,1,0],[1,1,0],[0,0.25,0],[0,0.5,0],[0,0.75,0],[1,0.25,0],[1,0.5,0],[1,0.75,0]];outlineConnect=0;fontColor=#232F3E;fillColor=#ED7100;strokeColor=#ffffff;dashed=0;verticalLabelPosition=bottom;verticalAlign=top;align=center;html=1;fontSize=12;fontStyle=0;aspect=fixed;shape=mxgraph.aws4.resourceIcon;resIcon=mxgraph.aws4.ec2;" parent="vL50DNEhLoG7WmbZGRhC-10" vertex="1">
          <mxGeometry x="50" y="91" width="38" height="38" as="geometry" />
        </mxCell>
        <mxCell id="vL50DNEhLoG7WmbZGRhC-13" value="" style="sketch=0;points=[[0,0,0],[0.25,0,0],[0.5,0,0],[0.75,0,0],[1,0,0],[0,1,0],[0.25,1,0],[0.5,1,0],[0.75,1,0],[1,1,0],[0,0.25,0],[0,0.5,0],[0,0.75,0],[1,0.25,0],[1,0.5,0],[1,0.75,0]];outlineConnect=0;fontColor=#232F3E;fillColor=#ED7100;strokeColor=#ffffff;dashed=0;verticalLabelPosition=bottom;verticalAlign=top;align=center;html=1;fontSize=12;fontStyle=0;aspect=fixed;shape=mxgraph.aws4.resourceIcon;resIcon=mxgraph.aws4.ec2;" parent="vL50DNEhLoG7WmbZGRhC-10" vertex="1">
          <mxGeometry x="109" y="91" width="38" height="38" as="geometry" />
        </mxCell>
        <mxCell id="IfRqWYrBAdbVgL5FJOSv-6" value="" style="endArrow=none;dashed=1;html=1;dashPattern=1 3;strokeWidth=2;rounded=0;strokeColor=#999999;" edge="1" parent="vL50DNEhLoG7WmbZGRhC-10" target="IfRqWYrBAdbVgL5FJOSv-1">
          <mxGeometry width="50" height="50" relative="1" as="geometry">
            <mxPoint x="150" y="110" as="sourcePoint" />
            <mxPoint x="170" y="100" as="targetPoint" />
          </mxGeometry>
        </mxCell>
        <mxCell id="IfRqWYrBAdbVgL5FJOSv-7" value="" style="curved=1;endArrow=classic;html=1;rounded=0;sketch=1;curveFitting=1;jiggle=2;" edge="1" parent="vL50DNEhLoG7WmbZGRhC-10">
          <mxGeometry width="50" height="50" relative="1" as="geometry">
            <mxPoint x="220" y="76" as="sourcePoint" />
            <mxPoint x="290" y="30" as="targetPoint" />
            <Array as="points">
              <mxPoint x="270" y="76" />
              <mxPoint x="220" y="26" />
            </Array>
          </mxGeometry>
        </mxCell>
        <mxCell id="IfRqWYrBAdbVgL5FJOSv-27" value="" style="endArrow=none;html=1;rounded=0;strokeColor=#B3B3B3;exitX=0.145;exitY=0.145;exitDx=0;exitDy=0;exitPerimeter=0;" edge="1" parent="vL50DNEhLoG7WmbZGRhC-10" source="IfRqWYrBAdbVgL5FJOSv-24">
          <mxGeometry width="50" height="50" relative="1" as="geometry">
            <mxPoint x="70" y="220" as="sourcePoint" />
            <mxPoint x="70" y="129" as="targetPoint" />
          </mxGeometry>
        </mxCell>
        <mxCell id="vL50DNEhLoG7WmbZGRhC-11" value="Public subnet &lt;b&gt;(12.0.1.0 / 24)&lt;/b&gt;" style="points=[[0,0],[0.25,0],[0.5,0],[0.75,0],[1,0],[1,0.25],[1,0.5],[1,0.75],[1,1],[0.75,1],[0.5,1],[0.25,1],[0,1],[0,0.75],[0,0.5],[0,0.25]];outlineConnect=0;html=1;whiteSpace=wrap;fontSize=12;fontStyle=0;container=1;pointerEvents=0;collapsible=0;recursiveResize=0;shape=mxgraph.aws4.group;grIcon=mxgraph.aws4.group_security_group;grStroke=0;strokeColor=#23445d;fillColor=#bac8d3;verticalAlign=top;align=left;spacingLeft=30;dashed=0;" parent="1" vertex="1">
          <mxGeometry x="490" y="50" width="240" height="120" as="geometry" />
        </mxCell>
        <mxCell id="IfRqWYrBAdbVgL5FJOSv-20" value="NGW" style="text;html=1;align=center;verticalAlign=middle;resizable=0;points=[];autosize=1;strokeColor=none;fillColor=none;fontStyle=1;fontFamily=Courier New;fontSize=13;" vertex="1" parent="vL50DNEhLoG7WmbZGRhC-11">
          <mxGeometry x="44" y="69" width="50" height="30" as="geometry" />
        </mxCell>
        <mxCell id="vL50DNEhLoG7WmbZGRhC-12" value="" style="outlineConnect=0;dashed=0;verticalLabelPosition=bottom;verticalAlign=top;align=center;html=1;shape=mxgraph.aws3.internet_gateway;fillColor=#F58534;gradientColor=none;" parent="1" vertex="1">
          <mxGeometry x="120" y="300" width="69" height="72" as="geometry" />
        </mxCell>
        <mxCell id="vL50DNEhLoG7WmbZGRhC-15" value="" style="outlineConnect=0;dashed=0;verticalLabelPosition=bottom;verticalAlign=top;align=center;html=1;shape=mxgraph.aws3.vpc_nat_gateway;fillColor=#F58534;gradientColor=none;" parent="1" vertex="1">
          <mxGeometry x="540" y="80" width="39" height="40.7" as="geometry" />
        </mxCell>
        <mxCell id="IfRqWYrBAdbVgL5FJOSv-1" value="" style="sketch=0;outlineConnect=0;fontColor=#66B2FF;gradientColor=none;fillColor=#66B2FF;strokeColor=none;dashed=0;verticalLabelPosition=bottom;verticalAlign=top;align=center;html=1;fontSize=12;fontStyle=0;aspect=fixed;pointerEvents=1;shape=mxgraph.aws4.role;" vertex="1" parent="1">
          <mxGeometry x="660" y="250" width="48" height="27.08" as="geometry" />
        </mxCell>
        <mxCell id="IfRqWYrBAdbVgL5FJOSv-9" value="Ec2-CodeDeploy-ROLE" style="text;html=1;align=center;verticalAlign=middle;resizable=0;points=[];autosize=1;strokeColor=none;fillColor=none;fontStyle=1;fontFamily=Lucida Console;fontSize=14;fontColor=#808080;" vertex="1" parent="1">
          <mxGeometry x="780" y="208" width="190" height="30" as="geometry" />
        </mxCell>
        <mxCell id="IfRqWYrBAdbVgL5FJOSv-11" value="" style="sketch=0;outlineConnect=0;fontColor=#232F3E;gradientColor=none;fillColor=#8C4FFF;strokeColor=none;dashed=0;verticalLabelPosition=bottom;verticalAlign=top;align=center;html=1;fontSize=12;fontStyle=0;aspect=fixed;pointerEvents=1;shape=mxgraph.aws4.route_table;" vertex="1" parent="1">
          <mxGeometry x="330" y="86" width="48" height="46.77" as="geometry" />
        </mxCell>
        <mxCell id="IfRqWYrBAdbVgL5FJOSv-12" value="" style="sketch=0;outlineConnect=0;fontColor=#232F3E;gradientColor=none;fillColor=#8C4FFF;strokeColor=none;dashed=0;verticalLabelPosition=bottom;verticalAlign=top;align=center;html=1;fontSize=12;fontStyle=0;aspect=fixed;pointerEvents=1;shape=mxgraph.aws4.route_table;" vertex="1" parent="1">
          <mxGeometry x="333" y="232.62" width="48" height="46.77" as="geometry" />
        </mxCell>
        <mxCell id="IfRqWYrBAdbVgL5FJOSv-13" value="Public-RT" style="text;html=1;align=center;verticalAlign=middle;resizable=0;points=[];autosize=1;strokeColor=none;fillColor=none;fontStyle=1;fontFamily=Courier New;fontSize=13;" vertex="1" parent="1">
          <mxGeometry x="309" y="136" width="90" height="30" as="geometry" />
        </mxCell>
        <mxCell id="IfRqWYrBAdbVgL5FJOSv-14" value="Private-RT" style="text;html=1;align=center;verticalAlign=middle;resizable=0;points=[];autosize=1;strokeColor=none;fillColor=none;fontStyle=1;fontFamily=Courier New;fontSize=13;" vertex="1" parent="1">
          <mxGeometry x="307" y="277" width="100" height="30" as="geometry" />
        </mxCell>
        <mxCell id="IfRqWYrBAdbVgL5FJOSv-15" value="" style="endArrow=classic;startArrow=classic;html=1;rounded=0;" edge="1" parent="1" source="IfRqWYrBAdbVgL5FJOSv-11" target="vL50DNEhLoG7WmbZGRhC-11">
          <mxGeometry width="50" height="50" relative="1" as="geometry">
            <mxPoint x="410" y="135" as="sourcePoint" />
            <mxPoint x="460" y="85" as="targetPoint" />
          </mxGeometry>
        </mxCell>
        <mxCell id="IfRqWYrBAdbVgL5FJOSv-16" value="" style="endArrow=classic;startArrow=classic;html=1;rounded=0;" edge="1" parent="1" target="IfRqWYrBAdbVgL5FJOSv-11">
          <mxGeometry width="50" height="50" relative="1" as="geometry">
            <mxPoint x="160" y="296" as="sourcePoint" />
            <mxPoint x="210" y="246" as="targetPoint" />
            <Array as="points">
              <mxPoint x="160" y="109" />
            </Array>
          </mxGeometry>
        </mxCell>
        <mxCell id="IfRqWYrBAdbVgL5FJOSv-17" value="" style="endArrow=classic;html=1;rounded=0;" edge="1" parent="1">
          <mxGeometry width="50" height="50" relative="1" as="geometry">
            <mxPoint x="487" y="260" as="sourcePoint" />
            <mxPoint x="387" y="260" as="targetPoint" />
          </mxGeometry>
        </mxCell>
        <mxCell id="IfRqWYrBAdbVgL5FJOSv-5" value="" style="endArrow=none;dashed=1;html=1;dashPattern=1 3;strokeWidth=2;rounded=0;exitX=1;exitY=0.5;exitDx=0;exitDy=0;exitPerimeter=0;strokeColor=#999999;" edge="1" parent="1" source="vL50DNEhLoG7WmbZGRhC-14" target="IfRqWYrBAdbVgL5FJOSv-1">
          <mxGeometry width="50" height="50" relative="1" as="geometry">
            <mxPoint x="637" y="250" as="sourcePoint" />
            <mxPoint x="687" y="200" as="targetPoint" />
          </mxGeometry>
        </mxCell>
        <mxCell id="IfRqWYrBAdbVgL5FJOSv-19" value="" style="endArrow=classic;html=1;rounded=0;fontColor=#808080;" edge="1" parent="1" target="vL50DNEhLoG7WmbZGRhC-15">
          <mxGeometry width="50" height="50" relative="1" as="geometry">
            <mxPoint x="357" y="232.62" as="sourcePoint" />
            <mxPoint x="407" y="182.62" as="targetPoint" />
          </mxGeometry>
        </mxCell>
        <mxCell id="IfRqWYrBAdbVgL5FJOSv-21" value="IGW" style="text;html=1;align=center;verticalAlign=middle;resizable=0;points=[];autosize=1;strokeColor=none;fillColor=none;fontStyle=1;fontFamily=Courier New;fontSize=13;" vertex="1" parent="1">
          <mxGeometry x="130" y="370" width="50" height="30" as="geometry" />
        </mxCell>
        <mxCell id="IfRqWYrBAdbVgL5FJOSv-28" value="" style="endArrow=none;html=1;rounded=0;fontColor=#B3B3B3;strokeColor=#B3B3B3;exitX=0.145;exitY=0.145;exitDx=0;exitDy=0;exitPerimeter=0;" edge="1" parent="1" source="IfRqWYrBAdbVgL5FJOSv-24">
          <mxGeometry width="50" height="50" relative="1" as="geometry">
            <mxPoint x="617.5" y="410" as="sourcePoint" />
            <mxPoint x="617.5" y="319" as="targetPoint" />
          </mxGeometry>
        </mxCell>
        <mxCell id="IfRqWYrBAdbVgL5FJOSv-24" value="" style="outlineConnect=0;dashed=0;verticalLabelPosition=bottom;verticalAlign=top;align=center;html=1;shape=mxgraph.aws3.application_load_balancer;fillColor=#F58534;gradientColor=none;" vertex="1" parent="1">
          <mxGeometry x="705" y="372" width="55.59" height="58" as="geometry" />
        </mxCell>
        <mxCell id="IfRqWYrBAdbVgL5FJOSv-32" value="APP LOAD BALANCER" style="text;html=1;align=center;verticalAlign=middle;resizable=0;points=[];autosize=1;strokeColor=none;fillColor=none;fontStyle=1;fontFamily=Courier New;fontSize=12;" vertex="1" parent="1">
          <mxGeometry x="770" y="385.9999999999999" width="150" height="30" as="geometry" />
        </mxCell>
        <mxCell id="IfRqWYrBAdbVgL5FJOSv-33" value="" style="outlineConnect=0;dashed=0;verticalLabelPosition=bottom;verticalAlign=top;align=center;html=1;shape=mxgraph.aws3.codecommit;fillColor=#759C3E;gradientColor=none;" vertex="1" parent="1">
          <mxGeometry x="90" y="620" width="50" height="60.78" as="geometry" />
        </mxCell>
        <mxCell id="IfRqWYrBAdbVgL5FJOSv-34" value="CodeCommit Repo" style="text;html=1;align=center;verticalAlign=middle;resizable=0;points=[];autosize=1;strokeColor=none;fillColor=none;fontStyle=1;fontFamily=Courier New;fontSize=12;" vertex="1" parent="1">
          <mxGeometry x="60" y="680.78" width="130" height="30" as="geometry" />
        </mxCell>
        <mxCell id="IfRqWYrBAdbVgL5FJOSv-35" value="" style="outlineConnect=0;dashed=0;verticalLabelPosition=bottom;verticalAlign=top;align=center;html=1;shape=mxgraph.aws3.codepipeline;fillColor=#759C3E;gradientColor=none;" vertex="1" parent="1">
          <mxGeometry x="295.5" y="621.89" width="47.5" height="57" as="geometry" />
        </mxCell>
        <mxCell id="IfRqWYrBAdbVgL5FJOSv-36" value="CodePipeline" style="text;html=1;align=center;verticalAlign=middle;resizable=0;points=[];autosize=1;strokeColor=none;fillColor=none;fontStyle=1;fontFamily=Courier New;fontSize=12;" vertex="1" parent="1">
          <mxGeometry x="262" y="680.78" width="110" height="30" as="geometry" />
        </mxCell>
        <mxCell id="IfRqWYrBAdbVgL5FJOSv-37" value="" style="outlineConnect=0;dashed=0;verticalLabelPosition=bottom;verticalAlign=top;align=center;html=1;shape=mxgraph.aws3.codedeploy;fillColor=#759C3E;gradientColor=none;" vertex="1" parent="1">
          <mxGeometry x="470" y="623.78" width="47.5" height="57" as="geometry" />
        </mxCell>
        <mxCell id="IfRqWYrBAdbVgL5FJOSv-38" value="CodeDeploy" style="text;html=1;align=center;verticalAlign=middle;resizable=0;points=[];autosize=1;strokeColor=none;fillColor=none;fontStyle=1;fontFamily=Courier New;fontSize=12;" vertex="1" parent="1">
          <mxGeometry x="443.75" y="680.78" width="100" height="30" as="geometry" />
        </mxCell>
        <mxCell id="IfRqWYrBAdbVgL5FJOSv-39" value="" style="html=1;strokeWidth=1;shadow=0;dashed=0;shape=mxgraph.ios7.misc.link;fillColor=#4CDA64;strokeColor=none;buttonText=;strokeColor2=#222222;fontColor=#222222;fontSize=8;verticalLabelPosition=bottom;verticalAlign=top;align=center;sketch=0;" vertex="1" parent="1">
          <mxGeometry x="719.41" y="460" width="30.59" height="30.59" as="geometry" />
        </mxCell>
        <mxCell id="IfRqWYrBAdbVgL5FJOSv-40" value="" style="endArrow=classic;startArrow=classic;html=1;rounded=0;entryX=0.5;entryY=1;entryDx=0;entryDy=0;entryPerimeter=0;strokeColor=#B3B3B3;" edge="1" parent="1" source="IfRqWYrBAdbVgL5FJOSv-39" target="IfRqWYrBAdbVgL5FJOSv-24">
          <mxGeometry width="50" height="50" relative="1" as="geometry">
            <mxPoint x="440" y="440" as="sourcePoint" />
            <mxPoint x="490" y="390" as="targetPoint" />
          </mxGeometry>
        </mxCell>
        <mxCell id="IfRqWYrBAdbVgL5FJOSv-41" value="DNS Name" style="text;html=1;align=center;verticalAlign=middle;resizable=0;points=[];autosize=1;strokeColor=none;fillColor=none;fontStyle=1;fontFamily=Courier New;fontSize=12;" vertex="1" parent="1">
          <mxGeometry x="755" y="462.2999999999999" width="76" height="26" as="geometry" />
        </mxCell>
        <mxCell id="IfRqWYrBAdbVgL5FJOSv-42" value="" style="sketch=0;outlineConnect=0;fontColor=#232F3E;gradientColor=none;fillColor=#9999FF;strokeColor=none;dashed=0;verticalLabelPosition=bottom;verticalAlign=top;align=center;html=1;fontSize=12;fontStyle=0;aspect=fixed;pointerEvents=1;shape=mxgraph.aws4.role;" vertex="1" parent="1">
          <mxGeometry x="530" y="621.89" width="38" height="21.44" as="geometry" />
        </mxCell>
        <mxCell id="IfRqWYrBAdbVgL5FJOSv-44" value="" style="endArrow=none;dashed=1;html=1;dashPattern=1 3;strokeWidth=2;rounded=0;" edge="1" parent="1" target="IfRqWYrBAdbVgL5FJOSv-42">
          <mxGeometry width="50" height="50" relative="1" as="geometry">
            <mxPoint x="517.5" y="657.61" as="sourcePoint" />
            <mxPoint x="567.5" y="607.61" as="targetPoint" />
          </mxGeometry>
        </mxCell>
        <mxCell id="IfRqWYrBAdbVgL5FJOSv-45" value="CodeDeploy-ROLE" style="text;html=1;align=center;verticalAlign=middle;resizable=0;points=[];autosize=1;strokeColor=none;fillColor=none;fontStyle=1;fontFamily=Courier New;fontSize=12;fontColor=#808080;" vertex="1" parent="1">
          <mxGeometry x="570" y="617.6099999999999" width="130" height="30" as="geometry" />
        </mxCell>
        <mxCell id="IfRqWYrBAdbVgL5FJOSv-48" value="" style="group" vertex="1" connectable="0" parent="1">
          <mxGeometry x="75" y="880" width="100" height="58" as="geometry" />
        </mxCell>
        <mxCell id="IfRqWYrBAdbVgL5FJOSv-46" value="" style="sketch=0;aspect=fixed;pointerEvents=1;shadow=0;dashed=0;html=1;strokeColor=none;labelPosition=center;verticalLabelPosition=bottom;verticalAlign=top;align=center;fillColor=#00188D;shape=mxgraph.azure.laptop" vertex="1" parent="IfRqWYrBAdbVgL5FJOSv-48">
          <mxGeometry width="96.66666666666667" height="58" as="geometry" />
        </mxCell>
        <mxCell id="IfRqWYrBAdbVgL5FJOSv-47" value="Local Repo" style="text;strokeColor=none;align=center;fillColor=none;html=1;verticalAlign=middle;whiteSpace=wrap;rounded=0;fontSize=9;fontFamily=Lucida Console;fontStyle=1" vertex="1" parent="IfRqWYrBAdbVgL5FJOSv-48">
          <mxGeometry x="5.6923076923076925" y="14.871794871794872" width="84.61538461538461" height="14.871794871794872" as="geometry" />
        </mxCell>
        <mxCell id="IfRqWYrBAdbVgL5FJOSv-49" value="( Remote Repo )" style="text;strokeColor=none;align=center;fillColor=none;html=1;verticalAlign=middle;whiteSpace=wrap;rounded=0;fontSize=9;fontFamily=Lucida Console;" vertex="1" parent="1">
          <mxGeometry x="75.0023076923077" y="703.0017948717948" width="84.61538461538461" height="14.871794871794872" as="geometry" />
        </mxCell>
        <mxCell id="IfRqWYrBAdbVgL5FJOSv-50" value="" style="endArrow=classic;html=1;rounded=0;" edge="1" parent="1">
          <mxGeometry width="50" height="50" relative="1" as="geometry">
            <mxPoint x="120" y="880" as="sourcePoint" />
            <mxPoint x="120" y="720" as="targetPoint" />
          </mxGeometry>
        </mxCell>
        <mxCell id="IfRqWYrBAdbVgL5FJOSv-51" value="" style="endArrow=classic;html=1;rounded=0;" edge="1" parent="1">
          <mxGeometry width="50" height="50" relative="1" as="geometry">
            <mxPoint x="150" y="647.61" as="sourcePoint" />
            <mxPoint x="260" y="648" as="targetPoint" />
          </mxGeometry>
        </mxCell>
        <mxCell id="IfRqWYrBAdbVgL5FJOSv-52" value="" style="endArrow=classic;html=1;rounded=0;" edge="1" parent="1">
          <mxGeometry width="50" height="50" relative="1" as="geometry">
            <mxPoint x="350" y="647.61" as="sourcePoint" />
            <mxPoint x="460" y="648" as="targetPoint" />
          </mxGeometry>
        </mxCell>
        <mxCell id="IfRqWYrBAdbVgL5FJOSv-53" value="on push" style="text;strokeColor=none;align=center;fillColor=none;html=1;verticalAlign=middle;whiteSpace=wrap;rounded=0;fontSize=9;fontFamily=Lucida Console;" vertex="1" parent="1">
          <mxGeometry x="82.6923076923077" y="810.0017948717948" width="84.61538461538461" height="14.871794871794872" as="geometry" />
        </mxCell>
        <mxCell id="IfRqWYrBAdbVgL5FJOSv-54" value="Starts" style="text;strokeColor=none;align=center;fillColor=none;html=1;verticalAlign=middle;whiteSpace=wrap;rounded=0;fontSize=9;fontFamily=Lucida Console;" vertex="1" parent="1">
          <mxGeometry x="159.6223076923077" y="631.4617948717948" width="84.61538461538461" height="14.871794871794872" as="geometry" />
        </mxCell>
        <mxCell id="IfRqWYrBAdbVgL5FJOSv-55" value="triggers" style="text;strokeColor=none;align=center;fillColor=none;html=1;verticalAlign=middle;whiteSpace=wrap;rounded=0;fontSize=9;fontFamily=Lucida Console;" vertex="1" parent="1">
          <mxGeometry x="359.1323076923077" y="632.7417948717948" width="84.61538461538461" height="14.871794871794872" as="geometry" />
        </mxCell>
        <mxCell id="IfRqWYrBAdbVgL5FJOSv-56" value="" style="endArrow=none;html=1;rounded=0;entryX=0.5;entryY=1;entryDx=0;entryDy=0;entryPerimeter=0;shadow=0;fixDash=0;dashed=1;dashPattern=1 2;" edge="1" parent="1" target="vL50DNEhLoG7WmbZGRhC-14">
          <mxGeometry width="50" height="50" relative="1" as="geometry">
            <mxPoint x="493.75" y="621.89" as="sourcePoint" />
            <mxPoint x="543.75" y="571.89" as="targetPoint" />
          </mxGeometry>
        </mxCell>
        <mxCell id="IfRqWYrBAdbVgL5FJOSv-57" value="" style="endArrow=none;html=1;rounded=0;entryX=0.5;entryY=1;entryDx=0;entryDy=0;entryPerimeter=0;dashed=1;dashPattern=1 2;" edge="1" parent="1" target="vL50DNEhLoG7WmbZGRhC-13">
          <mxGeometry width="50" height="50" relative="1" as="geometry">
            <mxPoint x="493.75" y="621.89" as="sourcePoint" />
            <mxPoint x="543.75" y="571.89" as="targetPoint" />
          </mxGeometry>
        </mxCell>
        <mxCell id="IfRqWYrBAdbVgL5FJOSv-66" value="" style="shape=image;verticalLabelPosition=bottom;labelBackgroundColor=default;verticalAlign=top;aspect=fixed;imageAspect=0;image=https://a0.awsstatic.com/libra-css/images/logos/aws_logo_smile_1200x630.png;clipPath=inset(8.23% 20% 18.35% 20%);" vertex="1" parent="1">
          <mxGeometry x="-84" y="-70" width="136.8" height="88.16" as="geometry" />
        </mxCell>
      </root>
    </mxGraphModel>
  </diagram>
</mxfile>
